<svg width="18" height="18" viewBox="0 0 18 18" fill="none" xmlns="http://www.w3.org/2000/svg">
<g clip-path="url(#clip0_1411_1985)">
<path d="M16.0079 2.83814C15.8176 2.36079 15.4982 1.95345 15.0899 1.66718C14.6816 1.3809 14.2024 1.22844 13.7125 1.22888L13.0499 1.22939C12.9802 1.22864 12.911 1.24252 12.8463 1.27022C12.7817 1.29793 12.7229 1.33892 12.6733 1.39081C12.6238 1.4427 12.5845 1.50446 12.5576 1.57253C12.5308 1.6406 12.517 1.71362 12.517 1.78736C12.5171 1.8611 12.5309 1.93411 12.5578 2.00215C12.5847 2.07019 12.6241 2.13192 12.6737 2.18376C12.7233 2.2356 12.7821 2.27653 12.8468 2.30418C12.9114 2.33182 12.9807 2.34564 13.0504 2.34482H13.7134C13.9018 2.34435 14.0885 2.38343 14.2625 2.4598C14.4366 2.53617 14.5946 2.64832 14.7274 2.78973C14.9981 3.07712 15.1463 3.45849 15.1463 3.86389V5.70292L2.45843 5.70242L2.45646 5.70185V3.86389C2.4568 3.46151 2.60813 3.0757 2.87723 2.79116C3.14633 2.50661 3.51121 2.34656 3.89179 2.34615L4.56938 2.35138H4.5732C4.7133 2.35189 4.84786 2.29354 4.94726 2.18916C5.04667 2.08478 5.10279 1.94293 5.10327 1.7948C5.10375 1.64668 5.04856 1.50442 4.94984 1.39932C4.85111 1.29422 4.71694 1.23488 4.57684 1.23437L3.89705 1.22939H3.89341C3.56607 1.22926 3.24191 1.29731 2.93944 1.42964C2.63698 1.56197 2.36213 1.75599 2.13058 2.00063C1.89904 2.24526 1.71534 2.53573 1.58997 2.85542C1.4646 3.17512 1.40001 3.5178 1.3999 3.86389V14.2461C1.39976 14.5922 1.46419 14.9349 1.5895 15.2546C1.71481 15.5744 1.89854 15.8648 2.13017 16.1094C2.36179 16.3539 2.63677 16.5478 2.93936 16.6798C3.24194 16.8118 3.56618 16.8795 3.89352 16.8788H13.713C14.0402 16.8795 14.3642 16.8119 14.6666 16.6798C14.969 16.5477 15.2438 16.3538 15.4751 16.1092C15.7064 15.8646 15.8898 15.5741 16.0146 15.2544C16.1395 14.9347 16.2034 14.592 16.2027 14.2461V3.86389C16.2037 3.51159 16.1375 3.1627 16.0079 2.83814ZM14.7269 15.3183C14.5941 15.4595 14.4361 15.5714 14.262 15.6476C14.088 15.7237 13.9014 15.7625 13.713 15.7618H3.89352C3.70486 15.7625 3.51794 15.7237 3.34356 15.6476C3.16918 15.5714 3.01082 15.4595 2.87762 15.3182C2.60645 15.0316 2.4564 14.6514 2.4564 14.246V6.81943H2.45831L15.1463 6.81993V14.2461C15.147 14.4453 15.1103 14.6426 15.0383 14.8266C14.9663 15.0107 14.8605 15.1778 14.7269 15.3182V15.3183Z" fill="black"/>
<path d="M7.21665 2.90568C7.28602 2.90568 7.35471 2.89124 7.4188 2.86317C7.48289 2.8351 7.54112 2.79396 7.59018 2.7421C7.63923 2.69024 7.67814 2.62867 7.70469 2.56091C7.73123 2.49315 7.7449 2.42052 7.7449 2.34718V1.22916C7.7449 1.08103 7.68924 0.938977 7.59018 0.834237C7.49111 0.729497 7.35675 0.670654 7.21665 0.670654C7.07655 0.670654 6.94219 0.729497 6.84312 0.834237C6.74406 0.938977 6.6884 1.08103 6.6884 1.22916V2.34718C6.6884 2.42052 6.70207 2.49315 6.72861 2.56091C6.75516 2.62867 6.79407 2.69024 6.84312 2.7421C6.89218 2.79396 6.95041 2.8351 7.0145 2.86317C7.07859 2.89124 7.14728 2.90568 7.21665 2.90568ZM10.3921 2.90568C10.4615 2.90568 10.5302 2.89124 10.5942 2.86317C10.6583 2.8351 10.7166 2.79396 10.7656 2.7421C10.8147 2.69024 10.8536 2.62867 10.8801 2.56091C10.9067 2.49315 10.9203 2.42052 10.9203 2.34718V1.22916C10.9203 1.08103 10.8647 0.938977 10.7656 0.834237C10.6666 0.729497 10.5322 0.670654 10.3921 0.670654C10.252 0.670654 10.1176 0.729497 10.0186 0.834237C9.91951 0.938977 9.86385 1.08103 9.86385 1.22916V2.34718C9.86385 2.42052 9.87752 2.49315 9.90406 2.56091C9.93061 2.62867 9.96952 2.69024 10.0186 2.7421C10.0676 2.79396 10.1259 2.8351 10.1899 2.86317C10.254 2.89124 10.3227 2.90568 10.3921 2.90568ZM10.9203 7.93646H6.6884C6.5483 7.93646 6.41394 7.9953 6.31488 8.10004C6.21581 8.20478 6.16016 8.34684 6.16016 8.49496C6.16016 8.64309 6.21581 8.78515 6.31488 8.88989C6.41394 8.99463 6.5483 9.05347 6.6884 9.05347H9.92426C9.76125 9.32976 9.57806 9.65962 9.39434 10.0288C9.07303 10.6746 8.81637 11.3086 8.63146 11.9132C8.39497 12.6866 8.27505 13.417 8.27505 14.0841C8.27505 14.1575 8.28872 14.2301 8.31526 14.2978C8.34181 14.3656 8.38072 14.4272 8.42977 14.479C8.47882 14.5309 8.53706 14.572 8.60115 14.6001C8.66524 14.6282 8.73393 14.6426 8.8033 14.6426C8.87267 14.6426 8.94136 14.6282 9.00545 14.6001C9.06954 14.572 9.12777 14.5309 9.17683 14.479C9.22588 14.4272 9.26479 14.3656 9.29134 14.2978C9.31788 14.2301 9.33155 14.1575 9.33155 14.0841C9.33155 13.5367 9.43302 12.9255 9.63357 12.2672C9.79843 11.7256 10.0297 11.1533 10.3207 10.5662C10.8232 9.55265 11.3347 8.84149 11.3396 8.83474C11.3996 8.75202 11.4364 8.65322 11.4461 8.5495C11.4557 8.44577 11.4377 8.34127 11.3941 8.24782C11.3504 8.15436 11.283 8.07566 11.1992 8.02064C11.1155 7.96562 11.0189 7.93646 10.9203 7.93646Z" fill="black"/>
</g>
<defs>
<clipPath id="clip0_1411_1985">
<rect width="16.9197" height="17.8889" fill="white" transform="translate(0.343262 0.111084)"/>
</clipPath>
</defs>
</svg>
