<svg width="14" height="14" fill="none" xmlns="http://www.w3.org/2000/svg"><g clip-path="url(#prefix__prefix__clip0_549_2079)"><path d="M8.832 6.993l3.075-4.203a1.022 1.022 0 00-.822-1.624h-8.17a1.02 1.02 0 00-.822 1.624l3.074 4.203v5.402a.437.437 0 10.874 0V6.85a.439.439 0 00-.084-.258l-3.16-4.318a.146.146 0 01.118-.232h8.17a.146.146 0 01.117.232L8.043 6.591a.438.438 0 00-.084.258v4.313a.437.437 0 10.873 0v-4.17 0z" fill="#222" stroke="#222" stroke-width=".3"/></g><defs><clipPath id="prefix__prefix__clip0_549_2079"><path fill="#fff" d="M0 0h14v14H0z"/></clipPath></defs></svg>