<svg width="14" height="14" fill="none" xmlns="http://www.w3.org/2000/svg"><g clip-path="url(#prefix__clip0_598_3409)"><path d="M5.553 2h5.526a.921.921 0 01.921.921v5.526a.92.92 0 01-.921.921H5.553a.921.921 0 01-.921-.92V2.92A.921.921 0 015.552 2zm0 .79a.132.132 0 00-.132.131v5.526a.132.132 0 00.132.132h5.526a.132.132 0 00.131-.132V2.921a.131.131 0 00-.131-.132H5.553zm3.026 7.368a.395.395 0 11.79 0v.92a.921.921 0 01-.922.922H2.921A.92.92 0 012 11.079V5.553a.921.921 0 01.921-.921h.921a.395.395 0 010 .79h-.92a.132.132 0 00-.133.13v5.527a.132.132 0 00.132.131h5.526a.131.131 0 00.132-.131v-.921z" fill="#999"/></g><defs><clipPath id="prefix__clip0_598_3409"><path fill="#fff" d="M0 0h14v14H0z"/></clipPath></defs></svg>