<svg width="14" height="14" fill="none" xmlns="http://www.w3.org/2000/svg"><g clip-path="url(#prefix__clip0_507_1906)" fill="#333"><path d="M7 1.094a5.906 5.906 0 110 11.812A5.906 5.906 0 017 1.094zm0 .875A5.031 5.031 0 107 12.03 5.031 5.031 0 007 1.97z"/><path d="M7.517 8.616v-.168c0-.236.05-.452.158-.65.088-.177.226-.354.413-.511.463-.404.739-.66.827-.768.246-.315.374-.719.374-1.2 0-.592-.197-1.064-.59-1.409-.394-.354-.906-.521-1.536-.521-.728 0-1.3.206-1.713.63-.413.413-.62.974-.62 1.693h1.034c0-.433.088-.768.265-1.004.197-.286.522-.424.965-.424.354 0 .64.099.837.296.187.197.285.462.285.807 0 .256-.098.492-.275.719l-.168.187c-.61.541-.984.945-1.112 1.22-.138.256-.197.571-.197.935v.168h1.053zm-.531 1.939a.739.739 0 00.512-.197.698.698 0 00.216-.512.653.653 0 00-.207-.502.705.705 0 00-.521-.197.697.697 0 00-.512.197.653.653 0 00-.207.502.706.706 0 00.719.709z"/></g><defs><clipPath id="prefix__clip0_507_1906"><path fill="#fff" d="M0 0h14v14H0z"/></clipPath></defs></svg>