<svg width="32" height="32" fill="none" xmlns="http://www.w3.org/2000/svg"><g clip-path="url(#prefix__clip0_501_2430)"><ellipse cx="16" cy="26.5" rx="6" ry="1.5" fill="#222" fill-opacity=".11"/><path d="M16 3.166c5.629 0 10.167 4.427 10.167 9.858 0 1.31-.512 2.79-1.352 4.302-.836 1.504-1.976 3-3.18 4.328-1.203 1.328-2.459 2.476-3.517 3.288-.53.407-1.001.723-1.386.934-.41.226-.646.29-.732.29-.086 0-.322-.064-.732-.29a11.441 11.441 0 01-1.386-.934c-1.058-.812-2.314-1.96-3.517-3.288-1.204-1.328-2.344-2.824-3.18-4.328-.84-1.512-1.352-2.993-1.352-4.303 0-5.43 4.538-9.857 10.167-9.857zm0 5.591c-2.404 0-4.379 1.897-4.379 4.267S13.596 17.29 16 17.29c2.404 0 4.379-1.896 4.379-4.266S18.404 8.756 16 8.756z" fill="#FFD23D" stroke="#000"/></g><defs><clipPath id="prefix__clip0_501_2430"><path fill="#fff" d="M0 0h32v32H0z"/></clipPath></defs></svg>