<svg width="24" height="24" fill="none" xmlns="http://www.w3.org/2000/svg"><g fill="#222"><path fill-rule="evenodd" clip-rule="evenodd" d="M6.006 5.413c1.954-.731 3.449-.374 4.457.169.998.537 1.52 1.257 1.537 1.282.02-.029.542-.746 1.538-1.282 1.008-.543 2.502-.9 4.456-.17C20.402 6.314 22 9.416 20.28 13H17.98c.57-.865.858-1.653.966-2.314.294-1.811-.649-3.025-1.652-3.4-1.354-.506-2.247-.243-2.8.053a3.132 3.132 0 00-.858.68c-.013.014-.02.024-.024.029 0 0-1.112.952-1.612 1.952-.5-1-1.615-1.957-1.615-1.957l-.002-.002a2.987 2.987 0 00-.877-.703c-.553-.295-1.445-.559-2.8-.052-1.003.375-1.946 1.589-1.652 3.4.293 1.802 1.929 4.549 6.946 7.213V20c-.15-.005-.398-.052-.709-.214C.337 14.083 2.111 6.869 6.006 5.413z"/><path d="M13 16h6v2h-6z"/><path d="M17 14v6h-2v-6z"/></g></svg>