<svg width="20" height="20" fill="none" xmlns="http://www.w3.org/2000/svg"><path d="M7.498 8.824s1.087 1.04 1.967 1.663c0 0 1.556 1.247 1.293 3.042 0 0-.206 1.606-1.742 2.475 0 0-1.162.68-2.83 0 0 0-1.161-.756-1.555-1.946 0 0-.677-1.407.45-2.91 0 0 1.147-1.349 2.009-2.01 0 0-2.253-2.437-1.62-4.91 0 0-4.024 3.519-3.405 7.77 0 0 .262 3.968 3.578 6.028 0 0 3.298 2.192 7.364 0 0 0 4.103-1.984 3.99-7.577 0 0 .188-3.534-2.885-6.67 0 0-2.614-2.816-4.614-2.779 0 0-2.693-.018-3.611 2.93 0 0-.618 2.664 1.611 4.894z" fill="url(#prefix__paint0_linear_504_1412)"/><defs><linearGradient id="prefix__paint0_linear_504_1412" x1="9.5" y1="1" x2="9.5" y2="19" gradientUnits="userSpaceOnUse"><stop stop-color="#FF8D4E"/><stop offset="1" stop-color="#FF4D4D"/></linearGradient></defs></svg>